# File created by Blade
# Date/Time:  Tue Apr 07 20:49:23 2015
# Frame Rate: 120.000 fps
#------------------------------------------------------
:FULLY-SPECIFIED
:DEGREES
477
root 1.983230 33.960611 -6.962082 -42.270493 59.680926 -112.371119
Spine -38.050460 -12.945880 30.564283
Head -13.377409 18.717029 27.109417
LeftShoulder -21.763533 38.308095 32.069147
LeftArm 83.395417 -72.244100 -76.987603
LeftForeArm 11.416020 0.000000 17.967990
LeftHand 8.495121 -0.000000 17.739855
LeftHandThumb1 -26.253704 0.000000 33.147579
RightShoulder -23.688278 -11.884545 -21.872418
RightArm -20.298416 37.773383 32.809105
RightForeArm 66.101491 -0.000000 -1.759006
RightHand 4.468307 -0.000000 19.122775
RightHandThumb1 -24.326973 -0.000000 -32.862282
LeftUpLeg -65.755668 13.678517 33.293913
LeftLeg 3.625650 -0.000000 -0.000000
LeftFoot -0.745522 20.334902 -1.217020
LeftToeBase -13.995704 -0.000000 0.000000
RightUpLeg 26.483393 19.969505 -21.537755
RightLeg 74.249801 -0.000000 -0.000000
RightFoot 53.713639 8.132008 -0.986810
RightToeBase 11.141526 -0.000000 -0.000000
478
root 1.978417 33.965523 -6.959493 -42.163963 59.553664 -112.544961
Spine -38.177021 -12.851598 30.771191
Head -13.464882 18.757616 27.182072
LeftShoulder -21.763422 38.172827 32.231526
LeftArm 84.380111 -72.450054 -77.738026
LeftForeArm 11.955603 -0.000000 18.306559
LeftHand 8.501603 -0.000000 17.989579
LeftHandThumb1 -26.253704 0.000000 33.147579
RightShoulder -23.710873 -11.896138 -21.966201
RightArm -20.150184 37.717915 32.696446
RightForeArm 66.215929 0.000000 -1.915214
RightHand 4.429587 -0.000000 19.102860
RightHandThumb1 -24.326973 -0.000000 -32.862282
LeftUpLeg -65.882084 13.828375 33.475982
LeftLeg 3.476126 -0.000000 -0.000000
LeftFoot -0.622708 20.392827 -1.164622
LeftToeBase -14.003412 -0.000000 0.000000
RightUpLeg 26.634773 19.958947 -21.482182
RightLeg 73.813099 -0.000000 -0.000000
RightFoot 53.791049 8.426639 -0.873784
RightToeBase 10.831088 -0.000000 -0.000000
479
root 1.973570 33.970275 -6.956017 -42.040183 59.445592 -112.704640
Spine -38.321266 -12.754620 30.949030
Head -13.524132 18.787064 27.268410
LeftShoulder -21.694686 37.975153 32.447012
LeftArm 84.651866 -72.660041 -77.794574
LeftForeArm 12.291808 -0.000000 18.668086
LeftHand 8.760672 -0.000000 18.345695
LeftHandThumb1 -26.253704 0.000000 33.147579
RightShoulder -23.736738 -11.884716 -22.075022
RightArm -20.120533 37.755476 32.514407
RightForeArm 66.240246 -0.000000 -2.019467
RightHand 4.422824 -0.000000 19.166789
RightHandThumb1 -24.326973 -0.000000 -32.862282
LeftUpLeg -66.022611 14.000650 33.585358
LeftLeg 3.303686 -0.000000 -0.000000
LeftFoot -0.479493 20.403364 -1.123299
LeftToeBase -14.042600 -0.000000 0.000000
RightUpLeg 26.771459 19.895278 -21.486580
RightLeg 73.402155 -0.000000 -0.000000
RightFoot 53.764940 8.674422 -0.824058
RightToeBase 11.016869 -0.000000 -0.000000
480
root 1.970498 33.975820 -6.952602 -41.910910 59.337811 -112.849261
Spine -38.459463 -12.663240 31.120443
Head -13.550769 18.881967 27.376232
LeftShoulder -21.707008 37.842380 32.595697
LeftArm 85.088529 -72.841896 -77.989233
LeftForeArm 12.478868 -0.000000 19.060845
LeftHand 8.828175 -0.000000 18.455813
LeftHandThumb1 -26.253704 0.000000 33.147579
RightShoulder -23.756625 -11.809662 -22.164248
RightArm -20.148243 37.732101 32.280869
RightForeArm 66.433986 -0.000000 -2.107499
RightHand 4.411749 -0.000000 19.255711
RightHandThumb1 -24.326973 -0.000000 -32.862282
LeftUpLeg -66.173772 14.215574 33.599606
LeftLeg 3.132467 -0.000000 -0.000000
LeftFoot -0.341073 20.328500 -1.121887
LeftToeBase -14.080384 -0.000000 0.000000
RightUpLeg 26.891308 19.826882 -21.514168
RightLeg 73.005389 -0.000000 -0.000000
RightFoot 53.877716 8.850406 -0.654791
RightToeBase 10.804230 -0.000000 -0.000000
481
root 1.968538 33.982751 -6.947613 -41.751275 59.232297 -112.959806
Spine -38.595349 -12.592778 31.279597
Head -13.568597 19.035904 27.522048
LeftShoulder -21.773974 37.689042 32.706831
LeftArm 85.466211 -72.995754 -78.067767
LeftForeArm 12.688481 -0.000000 19.390946
LeftHand 8.832947 -0.000000 18.824906
LeftHandThumb1 -26.253704 0.000000 33.147579
RightShoulder -23.779284 -11.788795 -22.178469
RightArm -20.186970 37.905601 31.989547
RightForeArm 66.534502 -0.000000 -2.117942
RightHand 4.340319 0.000000 19.263471
RightHandThumb1 -24.326973 -0.000000 -32.862282
LeftUpLeg -66.338345 14.467644 33.553673
LeftLeg 2.986568 -0.000000 -0.000000
LeftFoot -0.257598 20.199309 -1.236598
LeftToeBase -14.125595 -0.000000 0.000000
RightUpLeg 26.988130 19.728357 -21.567949
RightLeg 72.667753 -0.000000 -0.000000
RightFoot 53.884318 8.971396 -0.600898
RightToeBase 10.535109 -0.000000 -0.000000
482
root 1.966208 33.989427 -6.942601 -41.578741 59.135761 -113.083988
Spine -38.783982 -12.517581 31.458899
Head -13.519541 19.109836 27.659266
LeftShoulder -21.767953 37.502455 32.866425
LeftArm 85.771847 -73.145098 -78.129272
LeftForeArm 12.897483 -0.000000 19.743658
LeftHand 8.641396 0.000000 19.201485
LeftHandThumb1 -26.253704 0.000000 33.147579
RightShoulder -23.786345 -11.762609 -22.226076
RightArm -20.312616 38.092965 31.669323
RightForeArm 66.541238 0.000000 -2.047535
RightHand 4.357527 -0.000000 19.323843
RightHandThumb1 -24.326973 -0.000000 -32.862282
LeftUpLeg -66.544750 14.746037 33.455078
LeftLeg 2.842851 -0.000000 -0.000000
LeftFoot -0.201364 20.026038 -1.415002
LeftToeBase -14.116613 -0.000000 0.000000
RightUpLeg 27.051588 19.599785 -21.654430
RightLeg 72.338229 -0.000000 -0.000000
RightFoot 53.952984 9.032298 -0.505050
RightToeBase 10.489724 -0.000000 -0.000000
483
root 1.965524 33.993872 -6.937755 -41.381017 59.051749 -113.164082
Spine -38.967676 -12.451400 31.615938
Head -13.445945 19.216775 27.802484
LeftShoulder -21.642908 37.221939 33.109015
LeftArm 86.000645 -73.361286 -78.188048
LeftForeArm 13.384421 0.000000 20.084679
LeftHand 8.602641 -0.000000 18.679918
LeftHandThumb1 -26.253704 0.000000 33.147579
RightShoulder -23.800726 -11.692627 -22.296315
RightArm -20.484608 38.319926 31.298384
RightForeArm 66.426952 -0.000000 -1.941592
RightHand 4.299344 -0.000000 19.369476
RightHandThumb1 -24.326973 -0.000000 -32.862282
LeftUpLeg -66.738395 15.037192 33.299463
LeftLeg 2.701207 -0.000000 -0.000000
LeftFoot -0.195865 19.804949 -1.651392
LeftToeBase -14.133295 -0.000000 0.000000
RightUpLeg 27.122066 19.470171 -21.768396
RightLeg 72.030063 -0.000000 -0.000000
RightFoot 53.957713 9.073040 -0.435227
RightToeBase 10.624229 -0.000000 -0.000000
484
root 1.965531 33.998869 -6.931444 -41.168693 58.966832 -113.235820
Spine -39.179702 -12.398479 31.772859
Head -13.303632 19.336353 27.985280
LeftShoulder -21.583731 37.036037 33.311731
LeftArm 86.436640 -73.528994 -78.453982
LeftForeArm 13.695273 -0.000000 20.437535
LeftHand 8.578359 -0.000000 18.654976
LeftHandThumb1 -26.253704 0.000000 33.147579
RightShoulder -23.790816 -11.617063 -22.358015
RightArm -20.706719 38.583735 30.875445
RightForeArm 66.218688 0.000000 -1.802144
RightHand 4.230772 -0.000000 19.366332
RightHandThumb1 -24.326973 -0.000000 -32.862282
LeftUpLeg -66.938646 15.339164 33.140739
LeftLeg 2.569509 -0.000000 -0.000000
LeftFoot -0.206907 19.556135 -1.942560
LeftToeBase -14.166088 -0.000000 0.000000
RightUpLeg 27.177881 19.339587 -21.869898
RightLeg 71.735354 -0.000000 -0.000000
RightFoot 53.985412 9.091992 -0.420587
RightToeBase 10.326397 -0.000000 -0.000000
485
root 1.966970 34.003239 -6.924372 -40.953338 58.899698 -113.316093
Spine -39.422712 -12.361712 31.924592
Head -13.138356 19.430982 28.203117
LeftShoulder -21.559066 36.882497 33.491218
LeftArm 87.052407 -73.657914 -78.897191
LeftForeArm 13.986456 -0.000000 20.745703
LeftHand 8.751794 -0.000000 18.928132
LeftHandThumb1 -26.253704 0.000000 33.147579
RightShoulder -23.796735 -11.640085 -22.372159
RightArm -20.823172 38.848902 30.556270
RightForeArm 66.026479 -0.000000 -1.620620
RightHand 4.195321 -0.000000 19.309762
RightHandThumb1 -24.326973 -0.000000 -32.862282
LeftUpLeg -67.155855 15.631181 32.967283
LeftLeg 2.425933 -0.000000 -0.000000
LeftFoot -0.178167 19.374249 -2.056250
LeftToeBase -14.251469 -0.000000 0.000000
RightUpLeg 27.229076 19.194525 -21.970262
RightLeg 71.454066 -0.000000 -0.000000
RightFoot 53.957898 9.127237 -0.430562
RightToeBase 10.484158 -0.000000 -0.000000
486
root 1.969063 34.007668 -6.917099 -40.703883 58.832334 -113.360990
Spine -39.674333 -12.330913 32.067701
Head -12.943035 19.562222 28.446330
LeftShoulder -21.526985 36.736825 33.681370
LeftArm 87.612735 -73.783329 -79.293166
LeftForeArm 13.943909 -0.000000 21.076091
LeftHand 8.738004 0.000000 19.721856
LeftHandThumb1 -26.253704 0.000000 33.147579
RightShoulder -23.789194 -11.569996 -22.468958
RightArm -20.990157 39.016434 30.250377
RightForeArm 65.820478 -0.000000 -1.438574
RightHand 4.122806 -0.000000 19.333177
RightHandThumb1 -24.326973 -0.000000 -32.862282
LeftUpLeg -67.354948 15.918317 32.815042
LeftLeg 2.270149 -0.000000 -0.000000
LeftFoot -0.129449 19.145303 -2.418334
LeftToeBase -14.380692 -0.000000 0.000000
RightUpLeg 27.258233 19.052828 -22.080119
RightLeg 71.183584 -0.000000 -0.000000
RightFoot 53.990096 9.078382 -0.412902
RightToeBase 10.568826 -0.000000 -0.000000
487
root 1.972455 34.011769 -6.906006 -40.510870 58.748791 -113.429278
Spine -39.881752 -12.315405 32.209951
Head -12.781069 19.665233 28.689644
LeftShoulder -21.538570 36.613362 33.811469
LeftArm 88.833058 -73.906447 -80.308795
LeftForeArm 13.950912 -0.000000 21.437106
LeftHand 8.637239 0.000000 19.234586
LeftHandThumb1 -26.253704 0.000000 33.147579
RightShoulder -23.845418 -11.356952 -22.658678
RightArm -21.091970 38.962409 30.044970
RightForeArm 65.576636 -0.000000 -1.332231
RightHand 4.151593 -0.000000 19.324404
RightHandThumb1 -24.326973 -0.000000 -32.862282
LeftUpLeg -67.521834 16.183235 32.706560
LeftLeg 2.126539 -0.000000 -0.000000
LeftFoot -0.052878 18.969338 -2.508336
LeftToeBase -14.436001 -0.000000 0.000000
RightUpLeg 27.328850 18.952737 -22.097033
RightLeg 70.930927 -0.000000 -0.000000
RightFoot 53.992269 9.119220 -0.393721
RightToeBase 10.510863 -0.000000 -0.000000
